# xmcd
#
# Track frame offsets:
#        225
#        15143
#        32079
#        45840
#        59944
#        74501
#        89668
#        107214
#        120805
#        136580
#        150665
#
# Disc length: 2176 seconds
#
# Revision: 0
# Processed by: cddbd v1.5.1PL0 Copyright (c) Steve Scherf et al.
# Submitted via: ExactAudioCopy v0.95a5
#
DISCID=87087d0b
DTITLE=B.J.Thomas - You Call That a Mountain
DYEAR=2000
DGENRE=Country
TTITLE0=You Call That a Mountain
TTITLE1=What's Forever For
TTITLE2=Somebody's Gonna Lose
TTITLE3=Most of All
TTITLE4=I;m So Lonesome Icould Cry
TTITLE5=Another Somebody Done Somebody Wrong Song
TTITLE6=I Lost Me
TTITLE7=Don't Worry Baby
TTITLE8=Old Fashioned ove
TTITLE9=Home Where I Belong
TTITLE10=Raindrops Keep Falling On My Head
EXTD=
EXTT0=
EXTT1=
EXTT2=
EXTT3=
EXTT4=
EXTT5=
EXTT6=
EXTT7=
EXTT8=
EXTT9=
EXTT10=
PLAYORDER=
